<?xml version="1.0" encoding="UTF-8" standalone="no"?>
<svg
   height="48"
   width="48"
   version="1.1"
   id="svg4"
   sodipodi:docname="calc.svg"
   inkscape:version="1.1.2 (0a00cf5339, 2022-02-04)"
   xmlns:inkscape="http://www.inkscape.org/namespaces/inkscape"
   xmlns:sodipodi="http://sodipodi.sourceforge.net/DTD/sodipodi-0.dtd"
   xmlns="http://www.w3.org/2000/svg"
   xmlns:svg="http://www.w3.org/2000/svg">
  <defs
     id="defs8" />
  <sodipodi:namedview
     id="namedview6"
     pagecolor="#ffffff"
     bordercolor="#666666"
     borderopacity="1.0"
     inkscape:pageshadow="2"
     inkscape:pageopacity="0.0"
     inkscape:pagecheckerboard="0"
     showgrid="false"
     inkscape:zoom="18.125"
     inkscape:cx="11.062069"
     inkscape:cy="24"
     inkscape:window-width="1880"
     inkscape:window-height="1052"
     inkscape:window-x="40"
     inkscape:window-y="0"
     inkscape:window-maximized="1"
     inkscape:current-layer="svg4" />
  <path
     d="M15.7 36.6h2.5v-4.4h4.4v-2.5h-4.4v-4.4h-2.5v4.4h-4.4v2.5h4.4Zm10.75-1.75H36.5V32.4H26.45Zm0-5.35H36.5V27H26.45Zm1.85-8.15 3.05-3.05 3.05 3.05 1.8-1.8-3.05-3.05 3.05-3.05-1.8-1.8-3.05 3.05-3.05-3.05-1.8 1.8 3.05 3.05-3.05 3.05Zm-16.25-3.6h9.8v-2.5h-9.8ZM9 42q-1.2 0-2.1-.9Q6 40.2 6 39V9q0-1.2.9-2.1Q7.8 6 9 6h30q1.2 0 2.1.9.9.9.9 2.1v30q0 1.2-.9 2.1-.9.9-2.1.9Z"
     id="path2"
     style="fill:#ffffff;fill-opacity:1" />
</svg>
