<?xml version="1.0" encoding="UTF-8" standalone="no"?>
<svg
   xmlns:dc="http://purl.org/dc/elements/1.1/"
   xmlns:cc="http://creativecommons.org/ns#"
   xmlns:rdf="http://www.w3.org/1999/02/22-rdf-syntax-ns#"
   xmlns:svg="http://www.w3.org/2000/svg"
   xmlns="http://www.w3.org/2000/svg"
   xmlns:sodipodi="http://sodipodi.sourceforge.net/DTD/sodipodi-0.dtd"
   xmlns:inkscape="http://www.inkscape.org/namespaces/inkscape"
   height="48"
   width="48"
   version="1.1"
   id="svg4"
   sodipodi:docname="gut.svg"
   inkscape:version="0.92.5 (2060ec1f9f, 2020-04-08)">
  <metadata
     id="metadata10">
    <rdf:RDF>
      <cc:Work
         rdf:about="">
        <dc:format>image/svg+xml</dc:format>
        <dc:type
           rdf:resource="http://purl.org/dc/dcmitype/StillImage" />
      </cc:Work>
    </rdf:RDF>
  </metadata>
  <defs
     id="defs8" />
  <sodipodi:namedview
     pagecolor="#ffffff"
     bordercolor="#666666"
     borderopacity="1"
     objecttolerance="10"
     gridtolerance="10"
     guidetolerance="10"
     inkscape:pageopacity="0"
     inkscape:pageshadow="2"
     inkscape:window-width="1920"
     inkscape:window-height="1049"
     id="namedview6"
     showgrid="false"
     inkscape:zoom="4.9166667"
     inkscape:cx="24"
     inkscape:cy="24"
     inkscape:window-x="1920"
     inkscape:window-y="0"
     inkscape:window-maximized="1"
     inkscape:current-layer="svg4" />
  <path
     d="m21.05 28.55-4.9-4.9q-.45-.45-1.1-.45-.65 0-1.15.5-.5.5-.5 1.15 0 .65.5 1.1l6.1 6.1q.45.45 1.05.45.6 0 1.05-.45l12-12q.45-.45.425-1.1-.025-.65-.475-1.1-.45-.5-1.125-.5t-1.175.5ZM24 44q-4.25 0-7.9-1.525-3.65-1.525-6.35-4.225-2.7-2.7-4.225-6.35Q4 28.25 4 24q0-4.2 1.525-7.85Q7.05 12.5 9.75 9.8q2.7-2.7 6.35-4.25Q19.75 4 24 4q4.2 0 7.85 1.55Q35.5 7.1 38.2 9.8q2.7 2.7 4.25 6.35Q44 19.8 44 24q0 4.25-1.55 7.9-1.55 3.65-4.25 6.35-2.7 2.7-6.35 4.225Q28.2 44 24 44Zm0-20Zm0 17q7.25 0 12.125-4.875T41 24q0-7.25-4.875-12.125T24 7q-7.25 0-12.125 4.875T7 24q0 7.25 4.875 12.125T24 41Z"
     id="path2"
     style="fill:#ffffff;fill-opacity:1" />
</svg>
