<?xml version="1.0" encoding="UTF-8" standalone="no"?>
<svg
   xmlns:dc="http://purl.org/dc/elements/1.1/"
   xmlns:cc="http://creativecommons.org/ns#"
   xmlns:rdf="http://www.w3.org/1999/02/22-rdf-syntax-ns#"
   xmlns:svg="http://www.w3.org/2000/svg"
   xmlns="http://www.w3.org/2000/svg"
   xmlns:sodipodi="http://sodipodi.sourceforge.net/DTD/sodipodi-0.dtd"
   xmlns:inkscape="http://www.inkscape.org/namespaces/inkscape"
   height="48"
   width="48"
   version="1.1"
   id="svg4"
   sodipodi:docname="hamburger.svg"
   inkscape:version="0.92.5 (2060ec1f9f, 2020-04-08)">
  <metadata
     id="metadata10">
    <rdf:RDF>
      <cc:Work
         rdf:about="">
        <dc:format>image/svg+xml</dc:format>
        <dc:type
           rdf:resource="http://purl.org/dc/dcmitype/StillImage" />
      </cc:Work>
    </rdf:RDF>
  </metadata>
  <defs
     id="defs8" />
  <sodipodi:namedview
     pagecolor="#ffffff"
     bordercolor="#666666"
     borderopacity="1"
     objecttolerance="10"
     gridtolerance="10"
     guidetolerance="10"
     inkscape:pageopacity="0"
     inkscape:pageshadow="2"
     inkscape:window-width="1920"
     inkscape:window-height="1049"
     id="namedview6"
     showgrid="false"
     inkscape:zoom="4.9166667"
     inkscape:cx="24"
     inkscape:cy="24"
     inkscape:window-x="1920"
     inkscape:window-y="0"
     inkscape:window-maximized="1"
     inkscape:current-layer="svg4" />
  <path
     d="M7.5 36q-.65 0-1.075-.425Q6 35.15 6 34.5q0-.65.425-1.075Q6.85 33 7.5 33h33q.65 0 1.075.425Q42 33.85 42 34.5q0 .65-.425 1.075Q41.15 36 40.5 36Zm0-10.5q-.65 0-1.075-.425Q6 24.65 6 24q0-.65.425-1.075Q6.85 22.5 7.5 22.5h33q.65 0 1.075.425Q42 23.35 42 24q0 .65-.425 1.075-.425.425-1.075.425Zm0-10.5q-.65 0-1.075-.425Q6 14.15 6 13.5q0-.65.425-1.075Q6.85 12 7.5 12h33q.65 0 1.075.425Q42 12.85 42 13.5q0 .65-.425 1.075Q41.15 15 40.5 15Z"
     id="path2"
     style="fill:#ffffff;fill-opacity:1" />
</svg>
